<svg width="43" height="43" viewBox="0 0 43 43" fill="none" xmlns="http://www.w3.org/2000/svg">
<path d="M21.5 43C33.3741 43 43 33.3741 43 21.5C43 9.62587 33.3741 0 21.5 0C9.62587 0 0 9.62587 0 21.5C0 33.3741 9.62587 43 21.5 43Z" fill="white" fill-opacity="0.2"/>
<path d="M19.4121 24.6327L29.1284 31.9686L34.033 11.0321L8.96709 20.8918L16.5944 23.4182L30.5144 14.0811L19.4121 24.6327Z" fill="#FFB214"/>
<path d="M16.5945 23.4181L18.6833 30.9351L19.4122 24.6325L30.5143 14.0809L16.5945 23.4181Z" fill="#DF9F1D"/>
<path d="M22.5701 27.017L18.6835 30.9354L19.4122 24.6328L22.5701 27.017Z" fill="#B9800C"/>
</svg>
