<svg width="44" height="47" viewBox="0 0 44 47" fill="none" xmlns="http://www.w3.org/2000/svg">
<path d="M21.8928 46.1826C33.767 46.1826 43.3928 35.8443 43.3928 23.0913C43.3928 10.3383 33.767 0 21.8928 0C10.0187 0 0.392822 10.3383 0.392822 23.0913C0.392822 35.8443 10.0187 46.1826 21.8928 46.1826Z" fill="white" fill-opacity="0.2"/>
<path d="M31.53 16.1468L33.36 14.2666V13.8551H27.0207L22.5028 25.9326L17.3628 13.8551H10.7159V14.2666L12.8535 17.0305C13.0618 17.2347 13.1707 17.5334 13.143 17.8341V28.6953C13.2089 29.0864 13.0904 29.4887 12.8344 29.773L10.4263 32.9074V33.3138H17.2539V32.9023L14.8458 29.773C14.585 29.4877 14.4617 29.0927 14.5142 28.6953V19.3007L20.5076 33.3189H21.2042L26.3576 19.3007V30.4678C26.3576 30.7623 26.3576 30.8229 26.1779 31.0159L24.3242 32.9422V33.3549H33.3179V32.9433L31.531 31.0642C31.3743 30.9368 31.2931 30.7234 31.3266 30.5161V16.6948C31.2931 16.4865 31.3732 16.2731 31.53 16.1468Z" fill="#FFB214"/>
</svg>
