<svg width="22" height="22" viewBox="0 0 22 22" fill="none" xmlns="http://www.w3.org/2000/svg">
<g clip-path="url(#clip0_31_224)">
<path d="M8.62474 8.65781C8.62474 8.65781 3.18345 7.95533 0.0391303 13.7711C0.00727805 13.832 -0.00392727 13.9016 0.00717751 13.9693C0.0182823 14.0371 0.0511052 14.0995 0.100775 14.1473C0.150444 14.195 0.214312 14.2256 0.282899 14.2345C0.351486 14.2434 0.421137 14.2302 0.481512 14.1967C1.92436 13.3827 4.71136 11.9473 6.03 12.1838C7.85568 12.5114 8.62474 8.65781 8.62474 8.65781Z" fill="#76B4F6"/>
<path d="M13.4416 13.3793C13.4416 13.3793 14.2107 18.7713 8.38824 21.9527C8.32744 21.9859 8.2574 21.9986 8.18869 21.9889C8.11998 21.9791 8.05634 21.9475 8.00736 21.8987C7.95837 21.8499 7.92672 21.7866 7.91716 21.7183C7.9076 21.6501 7.92066 21.5806 7.95437 21.5204C8.75746 20.0766 10.1663 17.2988 9.91616 15.99C9.56396 14.1848 13.4416 13.3793 13.4416 13.3793Z" fill="#76B4F6"/>
<path d="M9.71029 16.12L5.88028 12.3644C7.8676 5.31762 11.6534 2.23242 15.0376 0.915258C15.4596 0.746391 15.8713 0.616363 16.2763 0.504911C16.4175 0.464383 16.5553 0.42892 16.6931 0.395147L17.0028 0.322534C18.549 -0.024342 20.1454 -0.0924094 21.7159 0.121582C21.7507 0.127412 21.7829 0.14388 21.8079 0.168696C21.8329 0.193513 21.8495 0.225445 21.8554 0.260053C22.0908 1.81416 22.0412 3.39769 21.7091 4.93429C21.6886 5.0373 21.6665 5.14031 21.641 5.24332C21.6087 5.3801 21.5746 5.51857 21.5372 5.65704C21.4283 6.06064 21.2973 6.47436 21.1374 6.89653C19.8544 10.2705 16.785 14.0649 9.71029 16.12Z" fill="url(#paint0_linear_31_224)"/>
<path d="M17.4979 8.02286C17.1509 8.37196 16.7073 8.61106 16.2234 8.70992C15.7394 8.80878 15.2368 8.76296 14.779 8.57824C14.3213 8.39353 13.9291 8.07823 13.6519 7.67223C13.3748 7.26623 13.2252 6.78777 13.2221 6.29738C13.219 5.80699 13.3626 5.32671 13.6345 4.91729C13.9065 4.50788 14.2948 4.18772 14.7501 3.99733C15.2055 3.80694 15.7075 3.75487 16.1927 3.8477C16.6779 3.94054 17.1244 4.17411 17.4758 4.51887C17.7091 4.74747 17.8948 5.01945 18.0222 5.31929C18.1496 5.61912 18.2162 5.94092 18.2182 6.26631C18.2203 6.59171 18.1577 6.91431 18.0341 7.21571C17.9106 7.5171 17.7283 7.79137 17.4979 8.02286Z" fill="#317AC9"/>
<path d="M16.9926 7.52643C16.8708 7.6471 16.7328 7.75052 16.5825 7.83377C16.4742 7.89192 16.3602 7.93888 16.2422 7.97393C16.1796 7.99306 16.116 8.00884 16.0517 8.02121C15.8271 8.0667 15.5956 8.0667 15.3711 8.02121C14.904 7.9444 14.4868 7.6866 14.2113 7.30452C13.9358 6.92243 13.8245 6.44737 13.9019 5.98383C13.9792 5.52029 14.239 5.10625 14.624 4.83279C15.009 4.55933 15.4876 4.44885 15.9547 4.52566C16.0253 4.53108 16.0953 4.54238 16.164 4.55944C16.2819 4.58711 16.3961 4.62849 16.5043 4.68271C16.6806 4.76786 16.8411 4.88206 16.979 5.02044C17.1457 5.18406 17.2784 5.37869 17.3693 5.5932C17.4602 5.80772 17.5077 6.03791 17.509 6.27064C17.5102 6.50336 17.4653 6.73405 17.3767 6.94953C17.2881 7.165 17.1575 7.36104 16.9926 7.52643Z" fill="url(#paint1_linear_31_224)"/>
<path d="M13.2476 10.6673C13.0606 10.8555 12.8215 10.9844 12.5606 11.0376C12.2997 11.0909 12.0287 11.0661 11.782 10.9664C11.5354 10.8668 11.324 10.6967 11.1748 10.4777C11.0255 10.2588 10.9451 10.0008 10.9437 9.73646C10.9422 9.47212 11.0199 9.21329 11.1667 8.99276C11.3136 8.77223 11.5231 8.59991 11.7687 8.49761C12.0143 8.39532 12.285 8.36765 12.5464 8.41811C12.8079 8.46857 13.0484 8.59489 13.2374 8.78108C13.4899 9.03035 13.6327 9.36867 13.6346 9.72212C13.6366 10.0756 13.4974 10.4154 13.2476 10.6673Z" fill="url(#paint2_linear_31_224)"/>
<path d="M12.9414 10.3667C12.8932 10.415 12.8395 10.4575 12.7814 10.4934C12.7243 10.5309 12.6625 10.561 12.5977 10.5829C12.5632 10.5969 12.5272 10.6071 12.4905 10.6133C12.3672 10.6403 12.2395 10.6403 12.1162 10.6133C11.9382 10.5809 11.7744 10.4955 11.6466 10.3684C11.5323 10.254 11.4507 10.1114 11.4101 9.95541C11.3694 9.7994 11.3713 9.63548 11.4154 9.4804C11.4595 9.32532 11.5444 9.18466 11.6612 9.07276C11.778 8.96087 11.9227 8.88177 12.0804 8.84355C12.2028 8.81256 12.3306 8.80852 12.4548 8.83173C12.4911 8.83738 12.5269 8.84585 12.562 8.85706C12.6278 8.87607 12.6912 8.90271 12.7508 8.93642C12.8213 8.97512 12.8861 9.02344 12.9431 9.07996C13.1147 9.25086 13.2109 9.4824 13.2106 9.72369C13.2103 9.96498 13.1135 10.1963 12.9414 10.3667Z" fill="url(#paint3_linear_31_224)"/>
<path d="M5.87896 12.363L9.71058 16.1209L9.51803 16.3143C9.47343 16.3591 9.42037 16.3947 9.36189 16.4192C9.30341 16.4436 9.24064 16.4564 9.17719 16.4568C9.11373 16.4571 9.05082 16.4451 8.99205 16.4213C8.93329 16.3976 8.87981 16.3626 8.83467 16.3183L5.68805 13.2322C5.59689 13.1428 5.54525 13.0211 5.54449 12.8939C5.54373 12.7667 5.59391 12.6445 5.68399 12.554L5.87654 12.3606L5.87896 12.363Z" fill="url(#paint4_linear_31_224)"/>
<path d="M10.4351 12.2277C10.0948 13.1902 8.82212 15.0984 4.26219 18.035C4.22772 18.0584 4.18579 18.0684 4.14438 18.0631C4.10296 18.0578 4.06496 18.0376 4.03759 18.0063C4.0093 17.9787 3.9916 17.9422 3.98756 17.903C3.98353 17.8639 3.9934 17.8245 4.01547 17.7918C6.90797 13.2324 8.82723 11.9457 9.80047 11.5995C9.88686 11.5675 9.98058 11.5604 10.0709 11.5789C10.1612 11.5974 10.2444 11.6408 10.3109 11.7042C10.3808 11.7699 10.4298 11.8545 10.4519 11.9475C10.474 12.0405 10.4681 12.1379 10.4351 12.2277Z" fill="#76B4F6"/>
<path d="M21.7091 4.93429C20.5706 4.67247 19.5286 4.09983 18.7009 3.28108C17.8667 2.47172 17.2774 1.44693 16.9994 0.322533C18.5467 -0.0247506 20.1443 -0.0928195 21.7159 0.121581C21.7507 0.127411 21.7829 0.143879 21.8079 0.168695C21.8329 0.193512 21.8495 0.225444 21.8554 0.260052C22.0908 1.81416 22.0412 3.39769 21.7091 4.93429Z" fill="#76B4F6"/>
<path d="M21.641 5.24331C20.4466 4.96273 19.354 4.35889 18.4848 3.49891C17.61 2.64851 16.9899 1.57416 16.6931 0.395134C16.5553 0.428907 16.4175 0.464369 16.2763 0.504898C16.5937 1.75726 17.2531 2.89844 18.1819 3.80287C19.1059 4.71787 20.2673 5.36084 21.5372 5.66041C21.5746 5.51856 21.6087 5.38009 21.641 5.24331Z" fill="#76B4F6"/>
<path opacity="0.3" d="M10.4351 12.2277C10.0948 13.1902 8.82211 15.0984 4.26218 18.035C4.22771 18.0584 4.18578 18.0684 4.14437 18.0631C4.10295 18.0578 4.06495 18.0376 4.03758 18.0063L10.3058 11.7042C10.3766 11.7693 10.4266 11.8536 10.4495 11.9467C10.4725 12.0397 10.4675 12.1374 10.4351 12.2277Z" fill="#1A5493"/>
<path opacity="0.5" d="M16.0585 8.02119C15.8339 8.06668 15.6024 8.06668 15.3779 8.02119L15.2979 4.55942C15.5173 4.50663 15.7448 4.49574 15.9683 4.52734L16.0585 8.02119Z" fill="url(#paint5_linear_31_224)"/>
<path opacity="0.5" d="M16.5825 7.83376C16.4742 7.89191 16.3602 7.93887 16.2422 7.97392L16.164 4.55943C16.2819 4.5871 16.3961 4.62848 16.5043 4.6827L16.5825 7.83376Z" fill="url(#paint6_linear_31_224)"/>
<path opacity="0.5" d="M12.4905 10.6133C12.3672 10.6403 12.2394 10.6403 12.1162 10.6133L12.0804 8.84355C12.2028 8.81256 12.3306 8.80852 12.4548 8.83173L12.4905 10.6133Z" fill="url(#paint7_linear_31_224)"/>
<path opacity="0.5" d="M12.7814 10.4934C12.7243 10.5309 12.6625 10.561 12.5977 10.5829L12.5534 8.85706C12.6193 8.87608 12.6827 8.90271 12.7423 8.93643L12.7814 10.4934Z" fill="url(#paint8_linear_31_224)"/>
</g>
<defs>
<linearGradient id="paint0_linear_31_224" x1="13.4137" y1="5.83322" x2="21.6915" y2="14.296" gradientUnits="userSpaceOnUse">
<stop stop-color="white"/>
<stop offset="1" stop-color="#F4ABD6"/>
</linearGradient>
<linearGradient id="paint1_linear_31_224" x1="13.4969" y1="3.88088" x2="18.3692" y2="9.21903" gradientUnits="userSpaceOnUse">
<stop offset="0.01" stop-color="#B82A6B"/>
<stop offset="1" stop-color="#0F0032"/>
</linearGradient>
<linearGradient id="paint2_linear_31_224" x1="184.515" y1="128.209" x2="227.114" y2="128.209" gradientUnits="userSpaceOnUse">
<stop stop-color="#79BBF5"/>
<stop offset="1" stop-color="#76B4F6"/>
</linearGradient>
<linearGradient id="paint3_linear_31_224" x1="117.614" y1="63.2624" x2="171.39" y2="119.4" gradientUnits="userSpaceOnUse">
<stop offset="0.01" stop-color="#B82A6B"/>
<stop offset="1" stop-color="#0F0032"/>
</linearGradient>
<linearGradient id="paint4_linear_31_224" x1="5.51217" y1="14.3612" x2="9.75097" y2="14.4641" gradientUnits="userSpaceOnUse">
<stop stop-color="#FEFFB0"/>
<stop offset="1" stop-color="#D6183F"/>
</linearGradient>
<linearGradient id="paint5_linear_31_224" x1="15.7446" y1="8.24872" x2="15.5853" y2="3.55229" gradientUnits="userSpaceOnUse">
<stop stop-color="white" stop-opacity="0.4"/>
<stop offset="0.04" stop-color="white" stop-opacity="0"/>
<stop offset="1" stop-color="white"/>
</linearGradient>
<linearGradient id="paint6_linear_31_224" x1="56.5929" y1="125.364" x2="19.8122" y2="47.5398" gradientUnits="userSpaceOnUse">
<stop stop-color="white" stop-opacity="0.4"/>
<stop offset="0.04" stop-color="white" stop-opacity="0"/>
<stop offset="1" stop-color="white"/>
</linearGradient>
<linearGradient id="paint7_linear_31_224" x1="42.0144" y1="104.737" x2="31.5059" y2="75.0548" gradientUnits="userSpaceOnUse">
<stop stop-color="white" stop-opacity="0.4"/>
<stop offset="0.04" stop-color="white" stop-opacity="0"/>
<stop offset="1" stop-color="white"/>
</linearGradient>
<linearGradient id="paint8_linear_31_224" x1="29.7126" y1="99.6697" x2="15.6599" y2="76.438" gradientUnits="userSpaceOnUse">
<stop stop-color="white" stop-opacity="0.4"/>
<stop offset="0.04" stop-color="white" stop-opacity="0"/>
<stop offset="1" stop-color="white"/>
</linearGradient>
<clipPath id="clip0_31_224">
<rect width="22" height="22" fill="white"/>
</clipPath>
</defs>
</svg>
