<svg width="43" height="43" viewBox="0 0 43 43" fill="none" xmlns="http://www.w3.org/2000/svg">
<path d="M43 21.5C43 33.3743 33.3743 43 21.5 43C9.62572 43 0 33.3743 0 21.5C0 9.62572 9.62572 0 21.5 0C33.3743 0 43 9.62572 43 21.5Z" fill="white" fill-opacity="0.2"/>
<path d="M16.1303 33.2621C27.0535 33.2621 33.027 24.2124 33.027 16.3655C33.027 16.1083 33.0217 15.8527 33.0099 15.5981C34.1692 14.7596 35.1771 13.7138 35.9723 12.5232C34.9081 12.9959 33.7632 13.3145 32.5618 13.4579C33.7881 12.723 34.7293 11.5597 35.1734 10.173C34.0256 10.8534 32.7553 11.3478 31.4026 11.6145C30.3187 10.4603 28.7755 9.73828 27.0679 9.73828C23.788 9.73828 21.1284 12.3979 21.1284 15.6763C21.1284 16.1424 21.1806 16.5954 21.2823 17.0305C16.3473 16.7822 11.9705 14.4188 9.04188 10.8258C8.53141 11.7034 8.23779 12.723 8.23779 13.8105C8.23779 15.8707 9.28627 17.6899 10.8803 18.7539C9.90632 18.7239 8.99101 18.4559 8.19088 18.0107C8.18956 18.0356 8.18956 18.0606 8.18956 18.0866C8.18956 20.963 10.2367 23.3641 12.9537 23.9083C12.455 24.0441 11.9301 24.1173 11.3882 24.1173C11.0057 24.1173 10.6336 24.0793 10.2718 24.0103C11.028 26.3695 13.2201 28.0865 15.8196 28.1351C13.7867 29.7279 11.2264 30.677 8.44413 30.677C7.96516 30.677 7.49242 30.6497 7.02756 30.5947C9.65567 32.2789 12.7762 33.2621 16.1303 33.2621Z" fill="#FFB214"/>
</svg>
